<?xml version="1.0" encoding="UTF-8" standalone="no"?>
<!-- Uploaded to: SVG Repo, www.svgrepo.com, Generator: SVG Repo Mixer Tools -->

<svg
   fill="#000000"
   version="1.1"
   id="Capa_1"
   width="248.10966"
   height="248.09717"
   viewBox="0 0 172.64246 172.63376"
   xml:space="preserve"
   sodipodi:docname="HTML5.svg"
   xmlns:inkscape="http://www.inkscape.org/namespaces/inkscape"
   xmlns:sodipodi="http://sodipodi.sourceforge.net/DTD/sodipodi-0.dtd"
   xmlns="http://www.w3.org/2000/svg"
   xmlns:svg="http://www.w3.org/2000/svg"><defs
   id="defs3" /><sodipodi:namedview
   id="namedview3"
   pagecolor="#ffffff"
   bordercolor="#000000"
   borderopacity="0.25"
   inkscape:showpageshadow="2"
   inkscape:pageopacity="0.0"
   inkscape:pagecheckerboard="0"
   inkscape:deskcolor="#d1d1d1"
   showguides="true"><sodipodi:guide
     position="86.319283,84.492974"
     orientation="1,0"
     id="guide3"
     inkscape:locked="false" /><sodipodi:guide
     position="86.319283,84.492974"
     orientation="0,-1"
     id="guide4"
     inkscape:locked="false" /><inkscape:page
     x="0"
     y="0"
     width="172.64246"
     height="172.63376"
     id="page2"
     margin="0"
     bleed="0" /></sodipodi:namedview>
<g
   id="g3"
   transform="matrix(0.31013726,0,0,0.31013726,2.3509868e-5,-0.00456679)"
   style="fill:#ff6600">
	<g
   id="g2"
   style="display:inline;opacity:1;fill:#ff6600"
   inkscape:export-filename="g2.png"
   inkscape:export-xdpi="19.347258"
   inkscape:export-ydpi="19.347258">
		<path
   d="M 545.783,241.475 500.516,181.246 487.042,107.124 C 482.858,84.12 464.502,66.455 441.34,63.166 L 366.75,52.582 304.814,9.696 c -15.56,-10.775 -35.2,-12.678 -52.544,-5.095 -3.834,1.675 -7.478,3.801 -10.843,6.331 l -60.225,45.262 -74.127,13.474 c -4.138,0.751 -8.177,1.988 -12.016,3.663 -17.08,7.465 -29.316,23.574 -31.936,42.031 l -10.579,74.591 -42.89,61.945 c -13.311,19.222 -12.816,44.698 1.23,63.391 l 45.267,60.222 13.468,74.125 c 4.184,23.007 22.54,40.669 45.699,43.957 l 74.596,10.584 61.93,42.886 c 15.33,10.609 35.463,12.572 52.545,5.1 3.843,-1.678 7.498,-3.811 10.849,-6.332 l 60.231,-45.268 74.13,-13.474 c 4.133,-0.751 8.172,-1.988 12.014,-3.661 17.077,-7.467 29.313,-23.57 31.934,-42.035 l 10.578,-74.592 42.891,-61.94 c 13.308,-19.227 12.805,-44.707 -1.233,-63.386 z M 278.331,476.4 C 169.111,476.4 80.26,387.548 80.26,278.332 c 0,-109.22 88.852,-198.071 198.071,-198.071 109.219,0 198.071,88.851 198.071,198.071 0,109.217 -88.851,198.068 -198.071,198.068 z"
   id="path1"
   style="fill:#ff6600" />
		<polygon
   points="336.204,237.456 278.326,237.456 220.455,237.456 226.692,307.329 278.326,307.329 306.782,307.329 304.09,337.296 278.326,344.26 278.305,344.271 252.572,337.306 250.848,318.054 227.65,318.054 230.954,355.17 278.295,368.308 278.326,368.297 325.698,355.17 332.03,284.214 278.326,284.214 247.816,284.214 245.717,260.553 278.326,260.553 334.133,260.553 "
   id="polygon1"
   style="fill:#ff6600" />
		<path
   d="m 278.331,98.936 c -98.915,0 -179.396,80.473 -179.396,179.396 0,98.913 80.476,179.396 179.396,179.396 98.92,0 179.394,-80.483 179.394,-179.396 0,-98.923 -80.479,-179.396 -179.394,-179.396 z m 46.979,49.443 h 11.754 v 23.532 h 16.519 v 11.607 H 325.31 Z m -45.389,0 h 12.243 l 7.529,12.366 7.529,-12.366 h 12.251 v 35.139 h -11.687 v -17.406 l -8.089,12.487 h -0.196 l -8.089,-12.487 v 17.406 H 279.93 v -35.139 z m -37.573,0 h 32.425 v 11.661 h -10.346 v 23.478 H 252.683 V 160.04 h -10.335 z m -39.333,0 h 11.747 v 11.607 h 10.737 v -11.607 h 11.744 v 35.139 h -11.744 v -11.765 h -10.737 v 11.765 h -11.747 z m 150.749,238.974 -75.474,20.919 -75.406,-20.93 -16.798,-188.398 h 184.497 z"
   id="path2"
   style="fill:#241f1c" />
	</g>
</g>
</svg>
